<svg width="21" height="20" viewBox="0 0 21 20" fill="none" xmlns="http://www.w3.org/2000/svg">
<path d="M9.146 2.61328L10.0132 1.74609C10.3804 1.37891 10.9741 1.37891 11.3374 1.74609L18.9312 9.33594C19.2983 9.70312 19.2983 10.2969 18.9312 10.6602L11.3374 18.2539C10.9702 18.6211 10.3765 18.6211 10.0132 18.2539L9.146 17.3867C8.7749 17.0156 8.78271 16.4102 9.16162 16.0469L13.8687 11.5625H2.64209C2.12256 11.5625 1.70459 11.1445 1.70459 10.625V9.375C1.70459 8.85547 2.12256 8.4375 2.64209 8.4375H13.8687L9.16162 3.95312C8.77881 3.58984 8.771 2.98438 9.146 2.61328Z" fill="#58E8A0"/>
</svg>
