<?xml version="1.0" encoding="utf-8"?>
<!-- Generator: Adobe Illustrator 24.0.3, SVG Export Plug-In . SVG Version: 6.00 Build 0)  -->
<svg version="1.1" id="logos_carrefour" xmlns="http://www.w3.org/2000/svg" xmlns:xlink="http://www.w3.org/1999/xlink" x="0px"
	 y="0px" viewBox="0 0 566.9 308.3" style="enable-background:new 0 0 566.9 308.3;" xml:space="preserve">
<style type="text/css">
	.st0{fill:#FFFFFF;}
</style>
<path id="surface1" class="st0" d="M283,38.5c-63.9,0-115.8,51.9-115.8,115.8S219.1,270.2,283,270.2s115.8-51.9,115.8-115.8
	S346.9,38.5,283,38.5z M283,48.2c58.7,0,106.2,47.5,106.2,106.2c0,58.7-47.5,106.2-106.2,106.2c-58.7,0-106.2-47.5-106.2-106.2
	C176.9,95.7,224.3,48.2,283,48.2z M275.6,51.7l-10.1,1.2l-1.1,30.5l7.8-1.2l0.8-20.4l7.1,20.4h5.7l7.1-20.4l0.8,20.4l7.8,1.2
	l-1.1-30.5l-10.1-1.2L283,73.1L275.6,51.7z M349.5,75l-18.2,24.1l5.6,5.1l20.2-9.2l-13.4,17.6l3.9,6.6l27.4-12.7l-3.9-6.6l-15.8,7.2
	l11.3-14.8l-5-6.2l-16.9,7.8l10.6-13.9L349.5,75z M215.2,78.7c-2.1,0.1-4,1.1-5.3,2.7c-0.5,0.6-0.9,1.2-1.4,1.8
	c-2.5,3.1-4.9,6.1-7.4,9.2c-2.1,2.6-4.2,5.2-6.3,7.8c-0.1,0.2-0.3,0.4-0.5,0.6c0,0,0.3,0.1,0.3,0.1c0.8,0.7,1.8,1.3,2.6,2
	c3.1,2.5,6.1,4.9,9.2,7.4c3.1,2.5,6.1,4.9,9.2,7.4l2.4,2c0,0,0.1,0.2,0.1,0.1c0.2-0.2,0.3-0.4,0.5-0.6c2.1-2.6,4.2-5.2,6.3-7.8
	c2.5-3.2,5-6.4,7.5-9.5c1.3-1.6,2.7-3.1,3.3-5.1c0.3-1.1,0.4-2.2,0.3-3.3c-0.4-2.9-2.2-5.3-4.8-6.5c-2.7-1.2-5.8-0.8-8.1,0.9
	c-0.2,0.1-0.4,0.3-0.6,0.5c0.4-1.3,0.6-2.7,0.3-4.1c-0.3-1.3-1.1-2.5-2.1-3.5C219.3,79.3,217.2,78.5,215.2,78.7L215.2,78.7z
	 M214.6,86.3c1.1-0.1,2.1,0.3,2.9,1.1c0.8,0.8,1,2.1,0.8,3.2c-0.3,1-1,1.6-1.7,2.4c-1.2,1.6-2.5,3.1-3.8,4.7
	c-1.3,1.6-2.5,3.1-3.8,4.7c-1.3-1-2.5-2-3.8-3l-1.5-1.2c0,0,0.6-0.6,0.6-0.6c2.4-3,4.7-5.9,7.1-8.9c0.6-0.8,1.2-1.7,2.1-2.1
	C213.8,86.4,214.2,86.4,214.6,86.3L214.6,86.3z M283,86.8c-37.2,0-67.6,30.3-67.6,67.6s30.3,67.6,67.6,67.6s67.6-30.3,67.6-67.6
	S320.3,86.8,283,86.8z M225.1,93.1c1.4-0.1,2.6,0.7,3.2,2c0.5,1.2,0.4,2.6-0.5,3.6l-2.4,3c-2.2,2.8-4.4,5.5-6.6,8.3
	c-0.1-0.1-0.3-0.1-0.5-0.2c-0.6-0.5-1.2-1-1.8-1.5c-1-0.8-2-1.7-3-2.6l5.9-7.4l3-3.8C223.1,93.8,223.9,93.2,225.1,93.1L225.1,93.1z
	 M283,96.5c32,0,57.9,25.9,57.9,57.9H283v57.9c-32,0-57.9-25.9-57.9-57.9H283V96.5z"/>
</svg>
