<svg width="741" height="609" viewBox="0 0 741 609" fill="none" xmlns="http://www.w3.org/2000/svg">
<g clip-path="url(#clip0_17_121)">
<path d="M740.84 589.863C741.066 613.568 591.686 615.741 588.84 589.864C588.614 566.16 737.995 563.988 740.84 589.863Z" fill="#E6E6E6"/>
<path d="M623.966 507.569L612.864 513.624L619.929 536.837L631.03 537.846L637.086 524.726L623.966 507.569Z" fill="#9F616A"/>
<path d="M658.28 553.994V565.095L675.437 564.086L675.198 554.943L658.28 553.994Z" fill="#9F616A"/>
<path d="M619.929 374.348L625.984 450.042L645.16 561.058L675.437 557.021L665.345 469.217L669.382 388.478L619.929 374.348Z" fill="#2F2E41"/>
<path d="M700.668 317.831L628.003 318.84L619.929 374.349L669.382 397.561L681.493 441.968L619.929 507.569L644.151 537.846C644.151 537.846 678.465 491.421 703.696 465.181C728.927 438.94 716.816 359.21 716.816 359.21L700.668 317.831Z" fill="#2F2E41"/>
<path d="M657.271 174.518C669.533 174.518 679.474 164.577 679.474 152.315C679.474 140.052 669.533 130.111 657.271 130.111C645.008 130.111 635.067 140.052 635.067 152.315C635.067 164.577 645.008 174.518 657.271 174.518Z" fill="#9F616A"/>
<path d="M649.197 167.454V189.657L664.336 213.879C664.336 213.879 687.548 196.722 682.502 192.685C677.456 188.648 676.446 157.361 676.446 157.361L649.197 167.454Z" fill="#9F616A"/>
<path d="M649.197 185.62L634.058 203.786L640.114 329.941L687.548 328.932L695.622 218.925L685.53 190.666L678.607 181.247L666.354 199.749L649.197 185.62Z" fill="#D0CDE1"/>
<path d="M624.975 251.221L613.873 293.609L624.975 335.997L606.809 360.219L590.661 283.517C590.661 283.517 602.772 220.944 603.781 213.879C604.79 206.814 606.809 205.805 606.809 205.805L614.883 206.814L624.975 251.221Z" fill="#2F2E41"/>
<path d="M705.714 267.368L712.779 280.489L714.798 302.692L710.761 327.923L724.89 351.136L739.019 287.553L723.881 205.804H717.825L705.714 267.368Z" fill="#2F2E41"/>
<path d="M619.929 506.56C619.929 506.56 605.799 510.597 600.753 511.606C595.707 512.615 603.781 531.791 603.781 531.791C603.781 531.791 608.827 558.031 609.836 563.077C610.846 568.124 617.91 585.281 626.994 587.299C636.077 589.318 630.021 551.976 630.021 551.976C630.021 551.976 634.058 539.865 634.058 535.828C634.058 531.791 628.003 533.809 628.003 533.809C611.855 531.791 619.929 506.56 619.929 506.56Z" fill="#2F2E41"/>
<path d="M653.234 584.271C654.243 590.327 652.225 590.327 668.373 592.345C684.521 594.364 680.484 581.244 680.484 581.244C679.808 575.058 678.455 568.966 676.447 563.077C673.419 555.003 657.271 565.096 657.271 565.096C657.271 565.096 652.225 578.216 653.234 584.271Z" fill="#2F2E41"/>
<path d="M676.473 158.066L676.999 167.042C676.999 167.042 683.511 152.315 684.52 137.176C685.53 122.038 668.372 119.01 658.28 118.001C648.188 116.991 631.031 124.056 631.031 132.13C631.031 140.204 649.197 138.185 656.262 136.167C663.326 134.149 666.354 151.306 666.354 151.306L670.391 152.315L676.473 158.066Z" fill="#2F2E41"/>
<path d="M643.24 192.767L649.197 185.62L666.354 199.749L649.197 211.86L643.24 192.767Z" fill="#D0CDE1"/>
<path d="M685.53 190.666L678.465 181.583L666.354 199.749L681.493 210.851L685.53 190.666Z" fill="#D0CDE1"/>
<path d="M621.947 265.35L625.984 303.702L617.91 326.914L612.864 349.118C612.864 349.118 612.864 370.312 633.049 371.321C653.234 372.33 670.391 307.739 670.391 307.739C670.391 307.739 673.419 321.868 675.437 329.942C677.456 338.016 711.77 370.312 711.77 370.312C711.77 370.312 719.844 369.302 726.909 353.155C733.973 337.007 712.779 321.868 712.779 321.868L706.724 300.674L708.742 274.433L722.872 205.805L680.988 184.106L685.53 242.138L670.391 287.554L647.683 187.134L640.114 192.685L607.818 205.805L621.947 265.35Z" fill="#2F2E41"/>
<path d="M356.333 234.493L384.608 259.94C410.317 283.078 423.172 294.648 423.172 309.493C423.172 324.338 410.317 335.908 384.608 359.047L356.333 384.493" stroke="#58E8A0" stroke-width="50" stroke-linecap="round"/>
<path d="M306.113 187.333L273 310.915L239.887 434.495" stroke="#58E8A0" stroke-width="50" stroke-linecap="round"/>
<path d="M189.668 234.493L161.393 259.94C135.684 283.078 122.829 294.648 122.829 309.493C122.829 324.338 135.684 335.908 161.393 359.047L189.668 384.493" stroke="#58E8A0" stroke-width="50" stroke-linecap="round"/>
</g>
<defs>
<clipPath id="clip0_17_121">
<rect width="740.84" height="608.466" fill="white"/>
</clipPath>
</defs>
</svg>
