<svg width="608" height="608" viewBox="0 0 608 608" fill="none" xmlns="http://www.w3.org/2000/svg">
<g clip-path="url(#clip0_32_3)">
<path d="M382.173 576.247L363.768 607.381H400.577L382.173 576.247L363.768 607.381H400.577L382.173 576.247Z" fill="#A3C5EB"/>
<path d="M335.115 156.432V241.838C335.111 244.154 334.167 246.374 332.49 248.012C330.814 249.65 328.541 250.571 326.169 250.575H259.095L259.712 249.805C295 226.795 320.006 196.096 334.326 157.411L335.115 156.432Z" fill="#A3C5EB"/>
<path d="M403.084 71.3712H22.9619C16.8743 71.3784 11.0381 73.7435 6.73349 77.9477C2.42888 82.1519 0.00734069 87.852 0 93.7976V316.796C0.00734069 322.742 2.42888 328.442 6.73349 332.646C11.0381 336.85 16.8743 339.215 22.9619 339.223H403.084C409.171 339.215 415.007 336.85 419.312 332.646C423.617 328.442 426.038 322.742 426.046 316.796V93.7976C426.038 87.8519 423.617 82.1519 419.312 77.9477C415.007 73.7434 409.171 71.3784 403.084 71.3712V71.3712ZM424.022 316.796C424.022 319.482 423.481 322.141 422.429 324.623C421.377 327.104 419.835 329.358 417.89 331.258C415.946 333.157 413.637 334.663 411.097 335.69C408.556 336.718 405.833 337.246 403.084 337.246H22.9619C20.2122 337.246 17.4892 336.718 14.9487 335.69C12.4081 334.663 10.0997 333.157 8.15533 331.258C6.21095 329.358 4.66869 327.104 3.61665 324.623C2.56462 322.141 2.02342 319.482 2.02397 316.796V227.219C2.02397 222.001 2.2837 216.845 2.80319 211.751C6.71027 173.803 24.9155 138.626 53.8845 113.051C82.8535 87.4752 120.519 73.3252 159.57 73.348H403.084C408.637 73.3486 413.962 75.5033 417.888 79.3382C421.815 83.1731 424.021 88.3742 424.022 93.7976V316.796Z" fill="#5EF6AA"/>
<path d="M281.686 175.359H83.9745C82.3548 175.359 80.8013 175.987 79.656 177.106C78.5106 178.225 77.8672 179.742 77.8672 181.324C77.8672 182.906 78.5106 184.423 79.656 185.542C80.8013 186.66 82.3548 187.289 83.9745 187.289H281.686C283.306 187.289 284.859 186.66 286.004 185.542C287.15 184.423 287.793 182.906 287.793 181.324C287.793 179.742 287.15 178.225 286.004 177.106C284.859 175.987 283.306 175.359 281.686 175.359V175.359Z" fill="#5EF6AA"/>
<path d="M145.27 141.902H83.9744C82.3533 141.902 80.7986 142.531 79.6523 143.651C78.506 144.77 77.8621 146.289 77.8621 147.872C77.8621 149.455 78.506 150.974 79.6523 152.093C80.7986 153.213 82.3533 153.842 83.9744 153.842H145.27C146.891 153.842 148.446 153.213 149.592 152.093C150.739 150.974 151.383 149.455 151.383 147.872C151.383 146.289 150.739 144.77 149.592 143.651C148.446 142.531 146.891 141.902 145.27 141.902V141.902Z" fill="#5EF6AA"/>
<path d="M83.9745 175.359H114.283C110.458 179.639 106.304 183.627 101.856 187.289H83.9745C82.3548 187.289 80.8013 186.66 79.656 185.542C78.5106 184.423 77.8672 182.906 77.8672 181.324C77.8672 179.742 78.5106 178.225 79.656 177.106C80.8013 175.987 82.3548 175.359 83.9745 175.359V175.359Z" fill="#58E8A0"/>
<path d="M83.9745 141.902H135.13C133.497 145.989 131.615 149.976 129.494 153.842H83.9745C82.3534 153.842 80.7986 153.213 79.6523 152.093C78.506 150.974 77.8621 149.455 77.8621 147.872C77.8621 146.289 78.506 144.77 79.6523 143.651C80.7986 142.531 82.3534 141.902 83.9745 141.902V141.902Z" fill="#58E8A0"/>
<path d="M140.038 74.5242C104.639 78.8528 71.7898 94.7825 46.8616 119.709C21.9334 144.636 6.40085 177.085 2.80319 211.751C1.86204 211.573 0.931026 211.366 0 211.148V93.7976C0.00734069 87.852 2.42888 82.1519 6.73349 77.9477C11.0381 73.7435 16.8743 71.3784 22.9619 71.3712H139.229C139.522 72.409 139.785 73.4666 140.038 74.5242Z" fill="#58E8A0"/>
<path d="M138.894 91.9283C149.45 91.9283 158.008 83.5704 158.008 73.2604C158.008 62.9504 149.45 54.5925 138.894 54.5925C128.338 54.5925 119.781 62.9504 119.781 73.2604C119.781 83.5704 128.338 91.9283 138.894 91.9283Z" fill="white"/>
<path d="M138.894 92.9166C134.914 92.9166 131.023 91.7637 127.713 89.6039C124.403 87.4441 121.824 84.3742 120.301 80.7825C118.777 77.1908 118.379 73.2386 119.155 69.4257C119.932 65.6128 121.849 62.1104 124.663 59.3614C127.478 56.6124 131.064 54.7404 134.968 53.9819C138.872 53.2235 142.918 53.6128 146.596 55.1005C150.273 56.5882 153.416 59.1076 155.628 62.34C157.839 65.5725 159.02 69.3728 159.02 73.2604C159.014 78.4717 156.891 83.4679 153.118 87.1529C149.345 90.8379 144.23 92.9107 138.894 92.9166ZM138.894 55.581C135.314 55.581 131.814 56.6179 128.837 58.5605C125.861 60.5032 123.541 63.2643 122.17 66.4948C120.8 69.7253 120.442 73.28 121.14 76.7095C121.839 80.139 123.563 83.2891 126.094 85.7616C128.626 88.2341 131.851 89.9179 135.363 90.6001C138.874 91.2823 142.514 90.9322 145.821 89.594C149.129 88.2559 151.956 85.9899 153.945 83.0826C155.934 80.1752 156.996 76.7571 156.996 73.2604C156.99 68.5731 155.082 64.0794 151.688 60.765C148.294 57.4506 143.693 55.5862 138.894 55.581V55.581Z" fill="#3F3D56"/>
<path d="M136.287 82.9761C135.957 82.9761 135.631 82.901 135.336 82.7568C135.041 82.6126 134.784 82.4033 134.586 82.1453L129.371 75.3547C129.204 75.1365 129.082 74.8883 129.013 74.6241C128.944 74.36 128.928 74.0851 128.968 73.8151C129.007 73.5452 129.101 73.2855 129.243 73.0508C129.385 72.8162 129.573 72.6112 129.797 72.4476C130.02 72.284 130.274 72.165 130.545 72.0973C130.815 72.0296 131.097 72.0147 131.373 72.0532C131.65 72.0918 131.915 72.1832 132.156 72.3221C132.396 72.461 132.606 72.6448 132.773 72.863L136.185 77.3052L144.947 64.4689C145.26 64.0116 145.746 63.6943 146.299 63.5868C146.851 63.4793 147.425 63.5903 147.894 63.8955C148.362 64.2007 148.688 64.6752 148.799 65.2146C148.91 65.7541 148.797 66.3144 148.485 66.7727L138.056 82.0514C137.867 82.3277 137.614 82.5558 137.316 82.7166C137.018 82.8773 136.686 82.9661 136.346 82.9754L136.287 82.9761Z" fill="#58E8A0"/>
<path d="M289.68 223.383C300.236 223.383 308.794 215.025 308.794 204.715C308.794 194.405 300.236 186.047 289.68 186.047C279.124 186.047 270.566 194.405 270.566 204.715C270.566 215.025 279.124 223.383 289.68 223.383Z" fill="white"/>
<path d="M289.68 224.371C285.699 224.371 281.808 223.219 278.499 221.059C275.189 218.899 272.609 215.829 271.086 212.237C269.563 208.646 269.164 204.693 269.941 200.881C270.717 197.068 272.634 193.565 275.449 190.816C278.263 188.067 281.85 186.195 285.753 185.437C289.657 184.678 293.704 185.068 297.381 186.555C301.059 188.043 304.202 190.562 306.414 193.795C308.625 197.027 309.805 200.828 309.805 204.715C309.799 209.927 307.677 214.923 303.904 218.608C300.131 222.293 295.016 224.365 289.68 224.371V224.371ZM289.68 187.036C286.1 187.036 282.6 188.073 279.623 190.015C276.646 191.958 274.326 194.719 272.956 197.95C271.586 201.18 271.228 204.735 271.926 208.164C272.624 211.594 274.348 214.744 276.88 217.216C279.412 219.689 282.637 221.373 286.148 222.055C289.66 222.737 293.299 222.387 296.607 221.049C299.915 219.711 302.742 217.445 304.731 214.537C306.72 211.63 307.781 208.212 307.781 204.715C307.776 200.028 305.867 195.534 302.474 192.22C299.08 188.905 294.479 187.041 289.68 187.036Z" fill="#5EF6AA"/>
<path d="M287.072 214.431C286.742 214.431 286.417 214.356 286.122 214.212C285.826 214.067 285.57 213.858 285.372 213.6L280.157 206.809C279.99 206.591 279.868 206.343 279.798 206.079C279.729 205.815 279.714 205.54 279.753 205.27C279.833 204.725 280.131 204.233 280.582 203.902C281.034 203.572 281.601 203.43 282.159 203.508C282.717 203.586 283.221 203.877 283.559 204.318L286.97 208.76L295.732 195.924C296.046 195.466 296.532 195.149 297.084 195.041C297.637 194.934 298.21 195.045 298.679 195.35C299.148 195.655 299.474 196.13 299.584 196.669C299.695 197.209 299.582 197.769 299.271 198.227L288.842 213.506C288.653 213.782 288.399 214.01 288.102 214.171C287.804 214.332 287.471 214.421 287.132 214.43L287.072 214.431Z" fill="#5EF6AA"/>
<path d="M238.195 9.23008C229.756 3.20586 219.567 -0.0279681 209.114 0.000120407C201.204 0.0904638 193.437 2.074 186.494 5.77697C179.551 9.47993 173.644 14.7893 169.289 21.24C168.549 22.3455 170.169 23.6907 170.918 22.5734C176.223 14.6856 183.894 8.59166 192.881 5.12552C200.109 2.4055 207.921 1.50153 215.599 2.49653C223.278 3.49153 230.578 6.35364 236.829 10.8204C237.927 11.6089 239.299 10.0232 238.195 9.23006V9.23008Z" fill="#5EF6AA"/>
<path d="M157.356 14.0117L152.616 31.2127C152.588 31.3697 152.597 31.531 152.642 31.6842C152.688 31.8374 152.769 31.9783 152.878 32.0962C152.988 32.2141 153.125 32.3059 153.276 32.3644C153.428 32.4228 153.592 32.4465 153.755 32.4336L173.591 29.3312C174.933 29.1212 174.758 27.0522 173.405 27.2638L153.569 30.3662L154.707 31.5871L159.447 14.3861C159.803 13.0944 157.709 12.7304 157.356 14.0117V14.0117Z" fill="#5EF6AA"/>
<path d="M168.159 244.077C176.598 250.101 186.786 253.335 197.239 253.307C205.149 253.217 212.916 251.233 219.859 247.53C226.802 243.827 232.71 238.518 237.064 232.067C237.805 230.962 236.184 229.617 235.436 230.734C230.131 238.622 222.459 244.716 213.472 248.182C206.244 250.902 198.433 251.806 190.754 250.811C183.076 249.816 175.776 246.954 169.524 242.487C168.426 241.698 167.054 243.284 168.159 244.077V244.077Z" fill="#5EF6AA"/>
<path d="M248.997 239.296L253.737 222.095C253.765 221.938 253.756 221.776 253.711 221.623C253.666 221.47 253.585 221.329 253.475 221.211C253.365 221.093 253.229 221.001 253.077 220.943C252.925 220.884 252.761 220.861 252.599 220.874L232.762 223.976C231.42 224.186 231.595 226.255 232.948 226.043L252.785 222.941L251.646 221.72L246.906 238.921C246.55 240.213 248.644 240.577 248.997 239.296V239.296Z" fill="#5EF6AA"/>
<path d="M417.322 49.8408H341.523C339.086 49.8408 336.749 48.8954 335.026 47.2127C333.303 45.5299 332.335 43.2476 332.335 40.8677C332.335 38.4879 333.303 36.2056 335.026 34.5228C336.749 32.84 339.086 31.8947 341.523 31.8947H417.322C419.759 31.8947 422.096 32.84 423.819 34.5228C425.542 36.2056 426.51 38.4879 426.51 40.8677C426.51 43.2476 425.542 45.5299 423.819 47.2127C422.096 48.8954 419.759 49.8408 417.322 49.8408V49.8408Z" fill="#A3C5EB"/>
<path d="M415.58 40.8677L419.198 37.3346C419.3 37.2351 419.382 37.1168 419.438 36.9865C419.494 36.8561 419.523 36.7163 419.523 36.575C419.523 36.4337 419.495 36.2937 419.44 36.1631C419.385 36.0325 419.304 35.9139 419.201 35.814C419.099 35.7141 418.977 35.6349 418.844 35.5809C418.71 35.527 418.567 35.4994 418.422 35.4998C418.277 35.5001 418.134 35.5283 418.001 35.5828C417.867 35.6373 417.746 35.717 417.644 35.8174L414.027 39.3505L410.409 35.8174C410.308 35.717 410.186 35.6373 410.053 35.5828C409.92 35.5283 409.776 35.5001 409.632 35.4998C409.487 35.4994 409.344 35.527 409.21 35.5809C409.076 35.6349 408.955 35.7141 408.853 35.814C408.75 35.9139 408.669 36.0325 408.614 36.1631C408.559 36.2937 408.53 36.4337 408.531 36.575C408.531 36.7163 408.56 36.8561 408.616 36.9865C408.672 37.1168 408.753 37.2351 408.856 37.3346L412.473 40.8677L408.882 44.3757C408.779 44.4751 408.697 44.5934 408.642 44.7238C408.586 44.8541 408.557 44.994 408.557 45.1353C408.556 45.2765 408.584 45.4165 408.64 45.5471C408.695 45.6777 408.776 45.7964 408.878 45.8963C408.98 45.9962 409.102 46.0754 409.236 46.1293C409.369 46.1832 409.513 46.2108 409.657 46.2105C409.802 46.2102 409.945 46.1819 410.079 46.1274C410.212 46.0729 410.333 45.9932 410.435 45.8928L414.027 42.3849L417.619 45.8928C417.825 46.0925 418.104 46.2043 418.394 46.2036C418.685 46.203 418.963 46.09 419.169 45.8894C419.374 45.6888 419.49 45.4169 419.49 45.1332C419.491 44.8496 419.376 44.5772 419.172 44.3757L415.58 40.8677Z" fill="white"/>
<path d="M296.917 321.476C296.783 321.476 296.649 321.45 296.525 321.399C296.401 321.348 296.288 321.273 296.194 321.179L290.42 315.414C290.234 315.229 290.131 314.981 290.131 314.723C290.131 314.464 290.234 314.216 290.42 314.031L296.194 308.267C296.287 308.172 296.397 308.097 296.52 308.045C296.643 307.993 296.774 307.965 296.908 307.963C297.042 307.961 297.175 307.984 297.299 308.033C297.423 308.081 297.536 308.153 297.632 308.244C297.728 308.336 297.804 308.445 297.856 308.565C297.908 308.685 297.935 308.814 297.936 308.945C297.937 309.075 297.911 309.205 297.861 309.326C297.81 309.447 297.735 309.556 297.641 309.649L292.559 314.723L297.641 319.797C297.78 319.936 297.874 320.112 297.911 320.303C297.949 320.494 297.927 320.692 297.85 320.871C297.773 321.05 297.643 321.203 297.477 321.311C297.311 321.419 297.117 321.476 296.917 321.476V321.476Z" fill="#3F3D56"/>
<path d="M306.621 321.476C306.422 321.476 306.227 321.419 306.061 321.311C305.895 321.203 305.765 321.05 305.688 320.871C305.611 320.692 305.589 320.494 305.627 320.303C305.664 320.112 305.758 319.936 305.897 319.797L310.979 314.723L305.897 309.649C305.713 309.461 305.612 309.209 305.616 308.949C305.62 308.689 305.729 308.44 305.92 308.258C306.111 308.076 306.367 307.975 306.634 307.976C306.901 307.978 307.156 308.082 307.344 308.267L313.118 314.031C313.303 314.216 313.407 314.464 313.407 314.723C313.407 314.981 313.303 315.229 313.118 315.414L307.344 321.179C307.25 321.273 307.138 321.348 307.013 321.399C306.889 321.45 306.756 321.476 306.621 321.476V321.476Z" fill="#3F3D56"/>
<path d="M326.075 217.522C326.615 216.074 327.474 214.758 328.591 213.669C329.709 212.579 331.057 211.743 332.541 211.217C334.025 210.692 335.609 210.49 337.181 210.627C338.754 210.764 340.276 211.237 341.642 212.011L437.104 187.578L438.67 206.785L345.261 227.134C343.778 229.288 341.537 230.835 338.963 231.484C336.39 232.132 333.662 231.836 331.297 230.651C328.932 229.466 327.094 227.475 326.132 225.056C325.169 222.636 325.149 219.956 326.075 217.522V217.522Z" fill="#EAA9B2"/>
<path d="M469.998 183.698C467.727 180.504 464.553 178.023 460.864 176.558C457.174 175.093 453.129 174.708 449.219 175.448L414.116 182.099C414.116 182.099 426.201 221.61 441.504 220.737C447.954 220.369 456.116 216.669 463.402 212.51C465.858 211.119 467.993 209.246 469.671 207.009C471.35 204.773 472.537 202.221 473.157 199.514C473.776 196.808 473.816 194.006 473.272 191.284C472.728 188.562 471.614 185.979 469.998 183.698V183.698Z" fill="#3F3D56"/>
<path d="M434.839 587.271L425.538 587.195L421.42 551.338L435.148 551.451L434.839 587.271Z" fill="#EAA9B2"/>
<path d="M439.039 605.651L437.309 583.086L434.88 582.928L424.973 582.266L421.785 582.058L421.724 588.552L406.868 598.396C406.217 598.828 405.705 599.432 405.391 600.137C405.078 600.842 404.975 601.62 405.096 602.38C405.217 603.14 405.556 603.85 406.074 604.429C406.592 605.008 407.267 605.432 408.022 605.651C408.396 605.763 408.785 605.819 409.176 605.819L427.665 605.967L427.827 605.651L430.903 599.562L432.026 605.651L432.087 606.007L439.07 606.066L439.039 605.651Z" fill="#2F2E41"/>
<path d="M532.77 580.635L523.878 583.303L508.871 550.333L521.993 546.394L532.77 580.635Z" fill="#EAA9B2"/>
<path d="M533.832 575.92L531.464 576.483L521.82 578.767H521.81L518.713 579.508L520.666 585.725L509.544 599.483C509.065 600.084 508.768 600.804 508.686 601.561C508.604 602.318 508.741 603.083 509.081 603.768C509.421 604.453 509.951 605.032 510.611 605.438C511.271 605.844 512.033 606.061 512.813 606.066C513.225 606.065 513.634 606.005 514.028 605.888L514.817 605.651L531.707 600.58L532.81 593.513L535.937 599.305L542.606 597.299L533.832 575.92Z" fill="#2F2E41"/>
<path d="M416.129 285.763L398.379 336.145L397.793 340.176C393.32 344.324 398.939 345.69 396.832 346.784C394.725 347.878 393.309 350.944 396.148 351.492C398.987 352.04 408.14 548.548 420.213 556.178C432.287 563.808 439.635 569.327 437.417 558.155C436.524 553.654 437.787 529.52 439.615 502.304C439.822 499.219 443.095 495.955 440.256 492.956C437.417 489.957 440.606 487.983 440.784 485.495C443.33 449.956 446.271 414.869 446.271 414.869C446.271 414.869 465.088 477.984 469.974 473.098C474.861 468.212 472.927 480.242 474.42 483.837C475.667 486.841 470.343 492.741 478.168 492.831C485.992 492.922 504.368 554.271 506.232 554.202C509.925 554.064 520.307 554.453 526.472 553.213C529.516 552.601 516.002 506.154 504.718 466.045C503.818 462.846 498.92 462.772 502.07 456.597C505.22 450.422 489.547 410.465 490.892 408.617C494.462 403.712 495.821 401.58 492.301 401.259C488.78 400.937 487.74 402.824 487.55 398.066C487.36 393.307 486.752 381.574 486.752 381.574C486.752 381.574 484.202 335.171 466.345 309.534L464.822 294.301L416.129 285.763Z" fill="#2F2E41"/>
<path d="M416.938 286.842C401.555 289.023 376.398 302.345 393.889 273.004L412.281 228.204C398.804 217.984 410.127 199.101 421.42 180.229L447.642 154.618H470.422L476.446 176.996C483.892 192.657 484.842 210.525 479.097 226.855C475.349 237.493 484.561 260.58 482.717 262.303C478.669 266.086 471.585 261.478 478.669 268.724C485.753 275.969 487.172 278.288 484.438 281.082C481.705 283.876 475.633 292.772 475.633 292.772L466.345 309.534L416.938 286.842Z" fill="#3F3D56"/>
<path d="M464.494 149.362C477.857 144.286 484.477 129.591 479.281 116.54C474.084 103.488 459.038 97.0225 445.675 102.098C432.312 107.174 425.692 121.868 430.889 134.92C436.085 147.971 451.131 154.437 464.494 149.362Z" fill="#EAA9B2"/>
<path d="M490.015 158.674C493.545 163.608 495.906 169.248 496.928 175.185C494.083 176.962 490.771 177.896 487.394 177.872C487.279 177.44 487.165 177.008 487.034 176.576C486.055 173.231 484.599 170.038 482.709 167.089C482.968 170.269 482.527 173.465 481.415 176.465C479.63 175.672 477.718 175.19 475.763 175.041C474.171 175.04 472.601 175.402 471.177 176.096C469.522 170.737 467.999 165.809 466.918 162.273C466.885 171.137 453.583 178.864 439.07 177.744C438.546 177.424 443.804 162.849 443.296 162.513C442.133 161.761 441.003 160.945 439.873 160.146C444.623 152.978 449.783 145.298 448.899 144.147C448.964 145.571 443.755 152.418 438.087 158.882C434.942 156.626 452.814 119.924 443.984 116.948C443.837 118.244 441.887 118.244 439.512 117.972C438.886 115.834 437.954 113.793 436.744 111.909C436.901 113.807 436.667 115.716 436.056 117.524C433.71 117.525 431.371 117.766 429.078 118.244C428.547 117.429 427.961 116.648 427.325 115.908C427.387 116.81 427.36 117.716 427.243 118.612C424.9 119.108 422.967 119.684 422.689 120.148C420.854 119.492 423.983 116.532 422.836 114.996C419.921 111.157 424.245 105.557 426.981 101.589C432.599 93.462 444.934 90.6461 453.665 95.5258C454.059 94.1979 456.073 93.3179 458.662 92.726C459.758 92.4898 460.881 92.3877 462.003 92.422C473.142 92.614 488.606 101.589 489.212 112.453C489.261 113.541 489.343 114.725 489.425 115.988C490.212 128.148 489.245 139.363 497.747 148.258C500.826 151.474 500.859 166.705 499.68 174.545C496.616 171.393 494.438 159.138 490.015 158.674Z" fill="#2F2E41"/>
<path d="M553.091 590.869C553.561 590.89 554.027 590.769 554.425 590.523C554.823 590.277 555.133 589.918 555.315 589.493C555.497 589.069 555.541 588.6 555.44 588.151C555.34 587.702 555.101 587.293 554.755 586.981L554.598 586.37C554.619 586.321 554.639 586.272 554.66 586.223C555.134 585.13 555.928 584.198 556.943 583.544C557.957 582.89 559.147 582.544 560.363 582.548C561.578 582.553 562.765 582.908 563.775 583.569C564.784 584.23 565.571 585.168 566.037 586.264C567.897 590.641 570.266 595.025 570.849 599.653C571.106 601.699 570.998 603.772 570.529 605.782C574.899 596.471 577.168 586.352 577.183 576.11C577.184 573.539 577.038 570.971 576.745 568.417C576.503 566.323 576.168 564.244 575.738 562.18C573.396 550.98 568.367 540.483 561.065 531.55C557.53 529.667 554.672 526.771 552.875 523.251C552.224 521.987 551.763 520.636 551.509 519.242C551.907 519.293 553.012 513.363 552.711 512.999C553.267 512.176 554.261 511.766 554.868 510.963C557.886 506.966 562.044 507.664 564.215 513.095C568.852 515.381 568.897 519.171 566.052 522.817C564.242 525.137 563.993 528.276 562.404 530.759C562.568 530.963 562.738 531.161 562.901 531.365C565.888 535.117 568.492 539.145 570.674 543.393C570.144 538.634 570.777 533.821 572.523 529.348C574.292 525.18 577.608 521.669 580.528 518.066C581.3 517.098 582.349 516.375 583.542 515.989C584.735 515.603 586.018 515.571 587.229 515.897C588.44 516.224 589.526 516.893 590.347 517.821C591.169 518.75 591.691 519.895 591.846 521.113C591.852 521.166 591.858 521.219 591.863 521.272C591.43 521.511 591.005 521.765 590.59 522.033C590.068 522.374 589.664 522.861 589.43 523.429C589.196 523.998 589.143 524.623 589.279 525.221C589.415 525.82 589.732 526.364 590.19 526.783C590.648 527.203 591.225 527.477 591.846 527.57L591.909 527.58C591.755 529.106 591.482 530.62 591.092 532.106C594.838 546.255 586.751 551.409 575.203 551.64C574.948 551.768 574.699 551.896 574.444 552.017C576.637 558.086 578.012 564.408 578.536 570.824C578.832 574.609 578.815 578.411 578.484 582.193L578.503 582.059C579.34 577.853 581.637 574.058 585.007 571.315C590.012 567.3 597.083 565.821 602.482 562.594C603.056 562.234 603.723 562.042 604.405 562.04C605.087 562.038 605.755 562.227 606.331 562.584C606.906 562.941 607.365 563.452 607.654 564.055C607.942 564.659 608.048 565.33 607.958 565.991L607.936 566.132C607.131 566.452 606.348 566.821 605.59 567.236C605.156 567.475 604.731 567.729 604.316 567.997C603.794 568.338 603.39 568.824 603.156 569.393C602.922 569.962 602.869 570.586 603.005 571.185C603.141 571.783 603.459 572.328 603.917 572.747C604.375 573.166 604.952 573.44 605.572 573.534L605.635 573.543C605.681 573.55 605.72 573.556 605.766 573.562C604.391 576.77 602.461 579.722 600.06 582.289C597.718 594.641 587.657 595.813 576.895 592.216H576.889C575.708 597.227 573.997 602.105 571.784 606.771H553.548C553.482 606.573 553.424 606.369 553.365 606.171C555.053 606.275 556.747 606.176 558.411 605.877C557.058 604.256 555.705 602.622 554.352 601C554.322 600.97 554.293 600.938 554.267 600.904C553.58 600.074 552.888 599.251 552.201 598.421L552.201 598.42C552.164 595.876 552.463 593.338 553.09 590.869L553.091 590.869Z" fill="#A3C5EB"/>
<path d="M349.124 606.824C349.124 606.978 349.154 607.132 349.215 607.275C349.275 607.417 349.364 607.547 349.476 607.657C349.588 607.766 349.721 607.853 349.867 607.912C350.013 607.97 350.17 608.001 350.328 608H606.654C606.973 608 607.28 607.876 607.506 607.656C607.731 607.435 607.858 607.136 607.858 606.824C607.858 606.512 607.731 606.213 607.506 605.992C607.28 605.772 606.973 605.648 606.654 605.648H350.328C350.17 605.647 350.013 605.677 349.867 605.736C349.721 605.795 349.588 605.882 349.476 605.991C349.364 606.1 349.275 606.23 349.215 606.373C349.154 606.516 349.124 606.669 349.124 606.824Z" fill="#58E8A0"/>
<path d="M471.415 353.115L418.336 401.217L349.144 380.373L333.031 311.427L386.109 263.324L455.302 284.168L471.415 353.115Z" fill="white"/>
<g clip-path="url(#clip1_32_3)">
<path d="M373.232 355.457C382.759 366.551 397.591 370.729 411.061 367.427L365.92 342.014C367.362 346.948 369.853 351.529 373.232 355.457ZM420.067 314.647C417.092 311.183 413.759 309.828 411.063 308.856C407.627 307.74 404.585 306.902 402.602 304.593C400.389 302.017 400.33 297.979 403.147 295.669C403.274 295.565 403.407 295.481 403.538 295.387C394.511 295.002 385.316 297.788 377.848 303.911C367.827 312.127 363.325 324.38 364.731 336.195C365.42 335.663 366.066 335.156 366.605 334.714C369.605 332.255 373.945 328.091 373.945 328.091C375.414 326.734 377.502 328.804 376.111 330.249C376.111 330.249 374.711 331.702 373.057 333.208L409.575 355.003L400.055 331.46L385.311 323.16C383.691 324.338 382.074 325.359 382.074 325.359C380.452 326.538 378.65 324.08 380.272 322.902C380.272 322.902 385.315 319.373 388.134 317.062C391.134 314.603 395.473 310.439 395.473 310.439C396.944 309.081 399.031 311.151 397.64 312.597C397.64 312.597 396.236 314.052 394.586 315.556L430.826 337.186L425.665 325.498C423.575 320.605 422.128 317.046 420.067 314.647L420.067 314.647ZM404.526 333.977L416.904 365.47C420.186 364.07 423.245 362.217 425.988 359.968C429.328 357.229 432.047 354.039 434.149 350.569C433.964 350.512 433.785 350.439 433.613 350.351L404.526 333.977ZM415.539 297.854C416.429 298.646 417.322 299.547 418.207 300.578C420.65 303.422 422.852 307.065 424.648 312.405L437.143 344.343C441.498 332.492 439.481 318.761 430.601 308.421C426.417 303.548 421.208 300.009 415.539 297.854ZM373.86 299.266C355.423 314.383 353.008 341.338 368.479 359.354C383.952 377.371 411.538 379.728 429.975 364.611C448.412 349.495 450.829 322.539 435.356 304.521C419.886 286.506 392.297 284.15 373.86 299.266ZM428.689 363.114C411.098 377.537 384.774 375.287 370.012 358.097C355.251 340.908 357.554 315.188 375.147 300.764C392.738 286.342 419.059 288.592 433.82 305.781C448.582 322.971 446.281 348.691 428.689 363.114Z" fill="#464342"/>
</g>
<path d="M383.072 317.352C382.294 316.01 381.827 314.518 381.703 312.981C381.579 311.444 381.802 309.899 382.356 308.455C382.909 307.011 383.781 305.704 384.908 304.624C386.035 303.545 387.391 302.72 388.88 302.207L431.793 215.413L447.773 226.714L403.009 309.331C403.725 311.831 403.477 314.501 402.312 316.834C401.146 319.167 399.146 321.002 396.688 321.991C394.231 322.979 391.487 323.053 388.977 322.198C386.468 321.343 384.367 319.619 383.072 317.352V317.352Z" fill="#EAA9B2"/>
<path d="M450.117 188.452C446.155 188.067 442.163 188.815 438.627 190.606C435.092 192.397 432.166 195.153 430.207 198.539L412.609 228.94C412.609 228.94 451.231 245.6 460.481 233.661C464.38 228.63 466.794 220.163 468.282 212.05C468.792 209.322 468.718 206.52 468.065 203.821C467.412 201.123 466.194 198.585 464.488 196.368C462.782 194.151 460.624 192.304 458.151 190.941C455.678 189.579 452.943 188.731 450.117 188.452V188.452Z" fill="#3F3D56"/>
<path d="M340.175 177.188V262.594C340.171 264.91 339.227 267.13 337.55 268.768C335.873 270.405 333.6 271.327 331.229 271.331H264.155L264.772 270.561C300.06 247.551 325.066 216.852 339.386 178.167L340.175 177.188Z" fill="#58E8A0"/>
<path d="M57.3259 239.703L38.9209 270.837H75.7298L57.3259 239.703L38.9209 270.837H75.7298L57.3259 239.703Z" fill="#A3C5EB"/>
<path d="M196.892 386.858C230.609 386.858 257.942 360.163 257.942 327.232C257.942 294.301 230.609 267.606 196.892 267.606C163.175 267.606 135.842 294.301 135.842 327.232C135.842 360.163 163.175 386.858 196.892 386.858Z" fill="#5DC5E0"/>
<g clip-path="url(#clip2_32_3)">
<path d="M153.627 327.466C153.627 333.893 160.051 339.893 170.177 343.276C168.155 353.223 169.815 361.241 175.359 364.365C181.057 367.576 189.547 365.353 197.604 358.471C205.459 365.075 213.397 367.674 218.936 364.541C224.629 361.321 226.36 352.76 224.282 342.502C234.83 339.094 240.73 333.978 240.73 327.466C240.73 321.187 234.295 315.756 224.304 312.396C226.542 301.714 224.646 293.891 218.872 290.638C213.306 287.501 205.276 290.235 197.306 297.012C189.015 289.819 181.064 287.623 175.296 290.885C169.735 294.03 168.149 302.194 170.177 312.325C160.392 315.658 153.627 321.213 153.627 327.466Z" fill="white"/>
<path d="M222.189 315.732C221.365 315.457 220.535 315.201 219.699 314.966C219.837 314.415 219.966 313.862 220.083 313.306C221.968 304.366 220.736 297.163 216.527 294.792C212.492 292.518 205.892 294.889 199.227 300.557C198.57 301.116 197.928 301.692 197.301 302.284C196.881 301.89 196.454 301.505 196.019 301.127C189.034 295.066 182.032 292.513 177.827 294.891C173.796 297.171 172.602 303.942 174.299 312.416C174.468 313.255 174.658 314.089 174.87 314.919C173.88 315.194 172.923 315.487 172.007 315.799C163.818 318.589 158.588 322.961 158.588 327.496C158.588 332.181 164.202 336.879 172.733 339.728C173.424 339.958 174.122 340.171 174.824 340.367C174.596 341.261 174.393 342.161 174.217 343.065C172.599 351.391 173.862 358.002 177.883 360.268C182.036 362.608 189.006 360.203 195.793 354.406C196.33 353.948 196.868 353.462 197.408 352.952C198.087 353.593 198.784 354.214 199.499 354.817C206.073 360.344 212.566 362.577 216.583 360.304C220.732 357.957 222.081 350.855 220.33 342.215C220.196 341.555 220.041 340.881 219.866 340.194C220.355 340.053 220.836 339.907 221.304 339.755C230.172 336.885 235.942 332.243 235.942 327.496C235.942 322.945 230.543 318.543 222.189 315.732Z" fill="#53C1DE"/>
<path d="M220.265 336.691C219.842 336.828 219.408 336.96 218.966 337.088C217.987 334.06 216.665 330.839 215.049 327.513C216.592 324.265 217.862 321.086 218.814 318.077C219.605 318.301 220.373 318.537 221.113 318.786C228.272 321.193 232.638 324.754 232.638 327.497C232.638 330.418 227.922 334.212 220.265 336.691ZM217.088 342.842C217.862 346.663 217.973 350.117 217.46 352.818C216.999 355.244 216.073 356.862 214.927 357.51C212.49 358.889 207.276 357.096 201.654 352.369C201.009 351.827 200.36 351.249 199.709 350.636C201.889 348.307 204.067 345.599 206.193 342.591C209.933 342.267 213.466 341.737 216.67 341.014C216.827 341.636 216.967 342.246 217.088 342.842ZM184.959 357.272C182.578 358.094 180.681 358.117 179.534 357.471C177.094 356.096 176.08 350.788 177.464 343.668C177.628 342.826 177.816 341.989 178.028 341.158C181.197 341.843 184.704 342.336 188.453 342.633C190.593 345.575 192.834 348.28 195.093 350.649C194.613 351.102 194.121 351.545 193.619 351.975C190.618 354.538 187.61 356.357 184.96 357.272H184.959ZM173.801 336.673C170.03 335.413 166.915 333.776 164.779 331.99C162.861 330.384 161.892 328.79 161.892 327.497C161.892 324.745 166.092 321.234 173.096 318.848C173.975 318.55 174.863 318.277 175.758 318.029C176.726 321.106 177.996 324.322 179.528 327.575C177.976 330.876 176.688 334.144 175.711 337.257C175.07 337.077 174.433 336.883 173.801 336.673ZM177.542 311.795C176.088 304.536 177.053 299.059 179.483 297.685C182.071 296.221 187.793 298.309 193.825 303.541C194.21 303.876 194.597 304.226 194.985 304.588C192.738 306.946 190.517 309.631 188.396 312.556C184.758 312.886 181.275 313.415 178.074 314.124C177.876 313.352 177.699 312.576 177.542 311.795ZM210.909 319.846C210.153 318.57 209.369 317.309 208.557 316.066C211.025 316.37 213.39 316.775 215.61 317.271C214.944 319.358 214.113 321.541 213.134 323.779C212.419 322.454 211.677 321.142 210.909 319.846ZM197.302 306.896C198.826 308.509 200.353 310.311 201.854 312.265C198.808 312.125 195.757 312.124 192.711 312.263C194.214 310.327 195.754 308.528 197.302 306.896ZM183.608 319.868C182.849 321.154 182.121 322.457 181.424 323.777C180.462 321.547 179.638 319.354 178.966 317.237C181.173 316.754 183.527 316.359 185.979 316.06C185.158 317.311 184.367 318.581 183.608 319.868ZM186.049 339.163C183.516 338.887 181.127 338.513 178.921 338.044C179.604 335.889 180.445 333.649 181.428 331.371C182.127 332.691 182.859 333.995 183.621 335.282C184.399 336.594 185.208 337.889 186.049 339.163ZM197.393 348.325C195.827 346.674 194.265 344.847 192.739 342.883C194.22 342.94 195.73 342.968 197.265 342.968C198.842 342.968 200.4 342.934 201.935 342.867C200.428 344.867 198.907 346.697 197.393 348.325ZM213.166 331.255C214.2 333.557 215.071 335.785 215.763 337.904C213.52 338.404 211.099 338.807 208.548 339.106C209.365 337.839 210.157 336.557 210.922 335.259C211.7 333.941 212.448 332.606 213.166 331.255ZM208.06 333.646C206.888 335.635 205.65 337.587 204.349 339.497C202.054 339.657 199.682 339.74 197.265 339.74C194.858 339.74 192.516 339.667 190.261 339.524C188.926 337.618 187.665 335.663 186.481 333.664C185.302 331.676 184.201 329.644 183.181 327.574C184.199 325.503 185.296 323.471 186.471 321.481V321.481C187.645 319.491 188.896 317.545 190.222 315.647C192.522 315.477 194.881 315.388 197.265 315.388C199.66 315.388 202.022 315.478 204.322 315.649C205.634 317.544 206.877 319.483 208.049 321.464C209.228 323.449 210.34 325.472 211.384 327.528C210.351 329.606 209.242 331.646 208.06 333.646ZM214.877 297.589C217.467 299.049 218.474 304.935 216.847 312.655C216.74 313.158 216.624 313.659 216.499 314.157C213.29 313.434 209.805 312.895 206.156 312.561C204.031 309.603 201.828 306.914 199.618 304.587C200.197 304.041 200.79 303.509 201.396 302.993C207.107 298.136 212.445 296.219 214.877 297.589Z" fill="white"/>
<path d="M197.265 320.747C201.08 320.747 204.172 323.769 204.172 327.496C204.172 331.224 201.08 334.246 197.265 334.246C193.45 334.246 190.357 331.224 190.357 327.496C190.357 323.769 193.45 320.747 197.265 320.747Z" fill="#53C1DE"/>
</g>
</g>
<defs>
<clipPath id="clip0_32_3">
<rect width="608" height="608" fill="white"/>
</clipPath>
<clipPath id="clip1_32_3">
<rect width="86.8165" height="86.4682" fill="white" transform="matrix(0.773308 -0.634031 0.651496 0.758652 340.312 326.554)"/>
</clipPath>
<clipPath id="clip2_32_3">
<rect width="87.6396" height="85.6338" fill="white" transform="translate(153.369 284.732)"/>
</clipPath>
</defs>
</svg>
