<svg width="55" height="55" viewBox="0 0 55 55" fill="none" xmlns="http://www.w3.org/2000/svg">
<g clip-path="url(#clip0_32_52)">
<mask id="mask0_32_52" style="mask-type:luminance" maskUnits="userSpaceOnUse" x="0" y="0" width="55" height="55">
<path d="M0 0H55V55H0V0Z" fill="white"/>
</mask>
<g mask="url(#mask0_32_52)">
<path d="M27.5 29.2188C27.5 26.9395 28.4054 24.7537 30.0171 23.1421C31.6287 21.5304 33.8145 20.625 36.0938 20.625C38.373 20.625 40.5588 21.5304 42.1704 23.1421C43.7821 24.7537 44.6875 26.9395 44.6875 29.2188C44.6875 31.498 43.7821 33.6838 42.1704 35.2954C40.5588 36.9071 38.373 37.8125 36.0938 37.8125C33.8145 37.8125 31.6287 36.9071 30.0171 35.2954C28.4054 33.6838 27.5 31.498 27.5 29.2188V29.2188Z" fill="#1ABCFE"/>
<path d="M10.3125 46.4062C10.3125 44.127 11.2179 41.9412 12.8296 40.3296C14.4412 38.7179 16.627 37.8125 18.9062 37.8125H27.5V46.4062C27.5 48.6855 26.5946 50.8713 24.9829 52.4829C23.3713 54.0946 21.1855 55 18.9062 55C16.627 55 14.4412 54.0946 12.8296 52.4829C11.2179 50.8713 10.3125 48.6855 10.3125 46.4062V46.4062Z" fill="#0ACF83"/>
<path d="M27.5 3.4375V20.625H36.0938C38.373 20.625 40.5588 19.7196 42.1704 18.1079C43.7821 16.4963 44.6875 14.3105 44.6875 12.0312C44.6875 9.75205 43.7821 7.56619 42.1704 5.95455C40.5588 4.34291 38.373 3.4375 36.0938 3.4375L27.5 3.4375Z" fill="#FF7262"/>
<path d="M10.3125 12.0312C10.3125 14.3105 11.2179 16.4963 12.8296 18.1079C14.4412 19.7196 16.627 20.625 18.9062 20.625H27.5V3.4375H18.9062C16.627 3.4375 14.4412 4.34291 12.8296 5.95455C11.2179 7.56619 10.3125 9.75205 10.3125 12.0312V12.0312Z" fill="#F24E1E"/>
<path d="M10.3125 29.2188C10.3125 31.498 11.2179 33.6838 12.8296 35.2954C14.4412 36.9071 16.627 37.8125 18.9062 37.8125H27.5V20.625H18.9062C16.627 20.625 14.4412 21.5304 12.8296 23.1421C11.2179 24.7537 10.3125 26.9395 10.3125 29.2188V29.2188Z" fill="#A259FF"/>
</g>
</g>
<defs>
<clipPath id="clip0_32_52">
<rect width="55" height="55" fill="white"/>
</clipPath>
</defs>
</svg>
