<svg width="55" height="55" viewBox="0 0 55 55" fill="none" xmlns="http://www.w3.org/2000/svg">
<path d="M51.5625 3.4375H3.4375V51.5625H51.5625V3.4375Z" fill="#FFCA28"/>
<path d="M32.6562 43.4635L36.1995 41.1188C36.4772 41.9912 38.2357 44.0632 40.4568 44.0632C42.6779 44.0632 43.7092 42.8501 43.7092 42.0457C43.7092 39.8539 41.4411 39.0812 40.3518 38.7101C40.1741 38.6496 40.028 38.5998 39.9279 38.5563C39.8765 38.5339 39.799 38.5042 39.6995 38.4662C38.488 38.0034 34.018 36.2956 34.018 31.3453C34.018 25.8929 39.28 25.2659 40.47 25.2659C41.2485 25.2659 44.9915 25.3613 46.8557 28.8644L43.4182 31.2636C42.6647 29.7369 41.4126 29.2326 40.6419 29.2326C38.738 29.2326 38.3414 30.6282 38.3414 31.2636C38.3414 33.0463 40.4099 33.8454 42.1563 34.52C42.6133 34.6965 43.0482 34.8644 43.4182 35.0394C45.3221 35.939 48.125 37.4112 48.125 42.0457C48.125 44.367 46.178 48.1252 41.2765 48.1252C34.6923 48.1252 32.9471 44.1723 32.6562 43.4635Z" fill="#3E3E3E"/>
<path d="M15.4688 43.9289L19.1618 41.5856C19.4511 42.4575 20.5757 44.0652 22.2071 44.0652C23.8387 44.0652 24.6739 42.3894 24.6739 41.5856V25.7815H29.2157V41.5856C29.2892 43.7655 28.0802 48.1252 22.7446 48.1252C17.8389 48.1252 15.7995 45.2097 15.4688 43.9289Z" fill="#3E3E3E"/>
</svg>
