<svg width="55" height="55" viewBox="0 0 55 55" fill="none" xmlns="http://www.w3.org/2000/svg">
<g clip-path="url(#clip0_32_100)">
<path d="M54.8038 26.2575C54.4114 25.8651 49.3757 19.5215 48.5255 18.4751C47.61 17.4288 47.2176 17.625 46.629 17.6904C46.0404 17.7558 39.6968 18.8675 38.9774 18.9329C38.258 19.0637 37.8002 19.3253 38.258 19.9793C38.6504 20.5679 42.8359 26.4537 43.7515 27.8271L27.0749 31.8164L13.8644 9.64636C13.3412 8.86158 13.2105 8.59999 12.0333 8.66538C10.8561 8.73078 1.63495 9.51556 0.980962 9.51556C0.326979 9.58096 -0.392403 9.84255 0.26158 11.4121C0.915564 12.9817 11.3793 35.4787 11.6409 36.1327C11.9025 36.7867 12.6873 37.833 14.453 37.4407C16.2842 36.9829 22.5624 35.3479 26.0285 34.4323C27.8597 37.7022 31.522 44.3729 32.2414 45.3538C33.1569 46.6618 33.8109 46.4002 35.1843 46.0078C36.2961 45.6808 52.3187 39.9258 53.038 39.5988C53.7574 39.2718 54.2152 39.0756 53.692 38.3562C53.2996 37.833 49.1141 32.1434 46.8906 29.2005C48.3948 28.8081 53.8228 27.3693 54.4114 27.1731C55.0654 26.9769 55.1962 26.6499 54.8038 26.2575ZM24.5244 32.4704C24.3282 32.5358 14.9762 34.7593 14.5184 34.8901C13.9952 35.0209 13.9952 34.9555 13.9952 34.7593C13.8644 34.5631 2.87751 11.8045 2.68132 11.5429C2.55052 11.2813 2.55052 11.0197 2.68132 11.0197C2.81212 11.0197 11.5101 10.2349 11.7717 10.2349C12.0987 10.2349 12.0333 10.3003 12.1641 10.4965C12.1641 10.4965 24.3936 31.6202 24.5898 31.9472C24.8514 32.2742 24.7206 32.405 24.5244 32.4704ZM50.8145 37.3753C50.9453 37.6368 51.1415 37.7676 50.6183 37.8984C50.1605 38.0946 34.8573 43.2611 34.5303 43.3919C34.2033 43.5227 34.0071 43.5881 33.6147 42.9995C33.2223 42.4109 28.2521 33.8437 28.2521 33.8437L44.5363 29.5929C44.9286 29.4621 45.0594 29.3967 45.321 29.789C45.5826 30.2468 50.6837 37.1791 50.8145 37.3753ZM51.8609 25.8651C51.4685 25.9305 45.5172 27.4347 45.5172 27.4347L40.6124 20.7641C40.4816 20.5679 40.3508 20.3717 40.6778 20.3063C41.0047 20.2409 46.5636 19.2599 46.8252 19.1945C47.0868 19.1291 47.283 19.0637 47.61 19.5215C47.937 19.9139 52.1225 25.2766 52.3187 25.4728C52.5148 25.669 52.2533 25.7997 51.8609 25.8651Z" fill="#FB503B"/>
</g>
<defs>
<clipPath id="clip0_32_100">
<rect width="55" height="55" fill="white"/>
</clipPath>
</defs>
</svg>
