<svg width="55" height="55" viewBox="0 0 55 55" fill="none" xmlns="http://www.w3.org/2000/svg">
<g clip-path="url(#clip0_32_66)">
<path d="M9.72924 0H45.2708C50.6318 0 55 4.48148 55 9.98148V45.0185C55 50.5185 50.6318 55 45.2708 55H9.72924C4.36823 55 0 50.5185 0 45.0185V9.98148C0 4.48148 4.36823 0 9.72924 0Z" fill="#001E36"/>
<path d="M11.2184 38.602V14.3612C11.2184 14.1575 11.3177 14.0557 11.4169 14.0557C11.8141 14.0557 12.2112 14.0557 12.7076 14.0557C13.2039 14.0557 13.7996 14.0557 14.4946 14.0557C15.0902 14.0557 15.7852 14.0557 16.4801 14.0557C17.1751 14.0557 17.87 14.0557 18.565 14.0557C20.4512 14.0557 22.0397 14.2594 23.3303 14.7686C24.5216 15.176 25.5144 15.7871 26.4079 16.7038C27.1029 17.4168 27.6985 18.3334 28.0956 19.352C28.3935 20.3705 28.592 21.389 28.592 22.4075C28.592 24.4446 28.0956 26.0742 27.2021 27.3983C26.3086 28.7223 25.018 29.7409 23.5289 30.2501C21.9404 30.8612 20.2527 31.0649 18.3664 31.0649C17.87 31.0649 17.4729 31.0649 17.1751 31.0649C16.9765 31.0649 16.5794 31.0649 16.1823 31.0649V38.602C16.1823 38.8057 16.083 38.9075 15.8844 38.9075H15.7852H11.4169C11.3177 38.9075 11.2184 38.8057 11.2184 38.602ZM16.1823 18.639V26.4816C16.4801 26.4816 16.778 26.4816 17.0758 26.4816H18.2671C19.1606 26.4816 20.0541 26.3797 20.9476 26.0742C21.6426 25.8705 22.3375 25.4631 22.8339 24.852C23.3303 24.2408 23.5289 23.426 23.5289 22.4075C23.5289 21.6946 23.3303 20.9816 23.0325 20.3705C22.6354 19.7594 22.0397 19.2501 21.444 19.0464C20.5505 18.7409 19.657 18.5371 18.7635 18.5371C18.1678 18.5371 17.6715 18.5371 17.1751 18.5371C16.6787 18.639 16.3808 18.639 16.1823 18.639Z" fill="#31A8FF"/>
<path d="M42.7888 25.1576C42.0939 24.7502 41.3989 24.5465 40.6047 24.3428C39.8105 24.1391 38.917 24.0372 38.0235 24.0372C37.5271 24.0372 37.13 24.0372 36.6336 24.2409C36.3358 24.3428 36.1372 24.4446 35.9386 24.7502C35.8394 24.9539 35.7401 25.1576 35.7401 25.3613C35.7401 25.565 35.8394 25.7687 35.9386 25.9724C36.1372 26.2779 36.435 26.4817 36.7329 26.5835C37.2293 26.8891 37.8249 27.0928 38.3213 27.3983C39.5126 27.8057 40.704 28.4168 41.796 29.1298C42.5903 29.6391 43.1859 30.2502 43.583 31.065C43.9802 31.7779 44.1787 32.6946 44.0794 33.5094C44.0794 34.6298 43.7816 35.7502 43.1859 36.6668C42.5903 37.5835 41.6968 38.2965 40.6047 38.8057C39.5127 39.315 38.1228 39.5187 36.435 39.5187C35.343 39.5187 34.3502 39.4168 33.3574 39.2131C32.5632 39.1113 31.769 38.8057 30.9747 38.5002C30.7762 38.3983 30.6769 38.1946 30.6769 38.0928V34.0187C30.6769 33.9168 30.6769 33.815 30.7762 33.815C30.8755 33.815 30.8755 33.815 30.9747 33.815C31.8682 34.3242 32.861 34.7317 33.8538 34.9354C34.7473 35.1391 35.6408 35.2409 36.5343 35.3428C37.4278 35.3428 38.0235 35.2409 38.4206 35.0372C38.8177 34.8335 39.0163 34.4261 39.0163 34.0187C39.0163 33.7131 38.8177 33.4076 38.4206 33.102C38.0235 32.7965 37.3285 32.3891 36.1372 31.9817C34.9459 31.5742 33.8538 30.9631 32.861 30.2502C32.1661 29.7409 31.5704 29.0279 31.1733 28.2131C30.7762 27.5002 30.5776 26.6854 30.6769 25.7687C30.6769 24.7502 30.9747 23.8335 31.4711 22.9168C32.0668 22.0002 32.861 21.1854 33.8538 20.7779C34.9459 20.2687 36.3358 19.9631 37.9242 19.9631C38.917 19.9631 39.8105 20.065 40.8033 20.1668C41.4982 20.2687 42.1932 20.4724 42.7888 20.6761C42.8881 20.6761 42.9874 20.7779 42.9874 20.8798C42.9874 20.9817 42.9874 21.0835 42.9874 21.1854V25.0557C42.9874 25.1576 42.9874 25.2594 42.8881 25.2594C42.9874 25.1576 42.8881 25.1576 42.7888 25.1576Z" fill="#31A8FF"/>
</g>
<defs>
<clipPath id="clip0_32_66">
<rect width="55" height="55" fill="white"/>
</clipPath>
</defs>
</svg>
