<svg width="55" height="55" viewBox="0 0 55 55" fill="none" xmlns="http://www.w3.org/2000/svg">
<path d="M0.161987 27.4462C0.161987 31.5744 4.1931 35.4281 10.5482 37.6003C9.2791 43.9892 10.3209 49.1387 13.8001 51.1452C17.3761 53.2077 22.7038 51.78 27.7606 47.3596C32.6898 51.6015 37.6713 53.2708 41.1475 51.2586C44.7204 49.1903 45.8068 43.6916 44.5027 37.1032C51.1221 34.9148 54.8247 31.6288 54.8247 27.4462C54.8247 23.4138 50.7863 19.9254 44.5167 17.767C45.9207 10.9064 44.7311 5.88189 41.1078 3.79253C37.6146 1.77816 32.575 3.53386 27.5735 7.8866C22.37 3.2666 17.3802 1.85615 13.7607 3.9513C10.2708 5.97148 9.27501 11.2147 10.5482 17.7217C4.40751 19.8626 0.161987 23.4301 0.161987 27.4462Z" fill="white"/>
<path d="M43.189 19.9105C42.6723 19.7333 42.1512 19.5691 41.6262 19.4181C41.7133 19.0643 41.7938 18.709 41.8677 18.3522C43.0506 12.6099 42.2772 7.98387 39.6359 6.46106C37.1036 5.00055 32.9618 6.52336 28.7788 10.1635C28.3666 10.523 27.9636 10.8928 27.5701 11.2727C27.3066 11.0201 27.0384 10.7724 26.7657 10.5298C22.3818 6.63723 17.9876 4.99711 15.3491 6.52444C12.8191 7.98903 12.0697 12.3381 13.1347 17.7801C13.2407 18.319 13.3603 18.8552 13.4935 19.388C12.8718 19.5646 12.2713 19.7528 11.6968 19.953C6.55729 21.7448 3.2749 24.5533 3.2749 27.4661C3.2749 30.4748 6.79834 33.4925 12.1518 35.3221C12.5859 35.4698 13.0236 35.6066 13.4645 35.7324C13.3213 36.3065 13.1941 36.8844 13.0832 37.4656C12.0678 42.813 12.8608 47.059 15.3841 48.5146C17.9904 50.0174 22.3646 48.4727 26.6241 44.7494C26.9608 44.4551 27.2987 44.1429 27.6371 43.8157C28.0633 44.227 28.5009 44.6262 28.9494 45.0131C33.0752 48.5633 37.15 49.997 39.6712 48.5376C42.2751 47.0302 43.1211 42.4689 42.0224 36.9192C41.9386 36.4954 41.8409 36.0624 41.7313 35.6216C42.0385 35.5309 42.3399 35.4373 42.6341 35.3397C48.1994 33.4959 51.8201 30.515 51.8201 27.4661C51.8201 24.5427 48.4321 21.7154 43.189 19.9105Z" fill="#53C1DE"/>
<path d="M41.9817 33.3712C41.7164 33.4591 41.444 33.5439 41.1664 33.6262C40.5519 31.6812 39.7227 29.6129 38.7082 27.4763C39.6765 25.3902 40.4735 23.3485 41.0708 21.416C41.5673 21.5599 42.0494 21.7114 42.5139 21.8715C47.0063 23.4177 49.7464 25.7043 49.7464 27.466C49.7464 29.3427 46.7867 31.779 41.9817 33.3712ZM39.988 37.322C40.4737 39.7759 40.5431 41.9946 40.2213 43.729C39.9321 45.2875 39.3508 46.3265 38.6319 46.7426C37.102 47.6282 33.8301 46.4771 30.302 43.4409C29.8974 43.0929 29.4899 42.7212 29.0812 42.328C30.4491 40.8319 31.8162 39.0925 33.1504 37.161C35.4973 36.9529 37.7145 36.6123 39.7252 36.1476C39.8241 36.5472 39.9121 36.9389 39.988 37.322ZM19.8249 46.5897C18.3302 47.1175 17.1398 47.1326 16.4203 46.7177C14.8889 45.8347 14.2525 42.4251 15.1207 37.8522C15.2239 37.3118 15.3421 36.7743 15.4752 36.2404C17.4636 36.6802 19.6646 36.9967 22.0172 37.1875C23.3602 39.0774 24.7667 40.8147 26.1843 42.336C25.883 42.6274 25.5746 42.9114 25.2594 43.1876C23.3758 44.8342 21.4884 46.0021 19.8251 46.5897H19.8249ZM12.8225 33.3596C10.4553 32.5505 8.50048 31.499 7.1605 30.3518C5.95652 29.3205 5.34851 28.2968 5.34851 27.466C5.34851 25.6985 7.984 23.4437 12.3795 21.9112C12.9312 21.7197 13.4884 21.5444 14.0503 21.3855C14.6579 23.3614 15.4548 25.4273 16.4164 27.5165C15.4423 29.6368 14.6341 31.7356 14.0209 33.7347C13.6184 33.6195 13.2188 33.4944 12.8225 33.3596ZM15.1699 17.3817C14.2574 12.7189 14.8633 9.2017 16.388 8.31912C18.0123 7.37897 21.6034 8.71959 25.3885 12.0804C25.6304 12.2952 25.8734 12.5202 26.1168 12.7529C24.7066 14.2673 23.3129 15.9914 21.9815 17.8704C19.6984 18.0821 17.5128 18.4219 15.5035 18.8772C15.3798 18.3815 15.2685 17.883 15.1699 17.3817ZM36.1101 22.5523C35.6355 21.7326 35.1433 20.9231 34.6339 20.1246C36.1829 20.3201 37.6668 20.58 39.0603 20.8982C38.642 22.2391 38.1206 23.6411 37.5065 25.0784C37.0579 24.2272 36.5923 23.385 36.1101 22.5523ZM27.5707 14.2348C28.5271 15.271 29.4851 16.4282 30.4274 17.6835C28.516 17.5932 26.6013 17.5928 24.6898 17.6822C25.633 16.4385 26.5991 15.2831 27.5707 14.2348ZM18.9765 22.5665C18.5003 23.3925 18.0434 24.2296 17.6062 25.0769C17.0023 23.6446 16.4856 22.2363 16.0636 20.8763C17.4487 20.5663 18.9258 20.313 20.4647 20.1207C19.9496 20.9242 19.4533 21.7397 18.9765 22.5665ZM20.509 34.9593C18.9191 34.7819 17.4197 34.5414 16.0351 34.24C16.4637 32.856 16.9918 31.4174 17.6086 29.9543C18.0476 30.8023 18.5065 31.6399 18.9849 32.4663C19.473 33.3093 19.9812 34.1405 20.509 34.9593ZM27.628 40.8437C26.6451 39.783 25.6648 38.6099 24.7072 37.3482C25.6366 37.3847 26.5843 37.4032 27.5475 37.4032C28.537 37.4032 29.5152 37.381 30.4779 37.3381C29.5326 38.6228 28.5781 39.7976 27.628 40.8437ZM37.5263 29.8798C38.1751 31.3588 38.7221 32.7896 39.1565 34.1502C37.7489 34.4714 36.2293 34.7301 34.6281 34.9221C35.1412 34.1087 35.6381 33.2851 36.1184 32.4519C36.6068 31.6051 37.0762 30.7475 37.5263 29.8798ZM34.3219 31.4159C33.5865 32.6934 32.8098 33.9466 31.993 35.1735C30.5527 35.2764 29.0643 35.3295 27.5475 35.3295C26.0369 35.3295 24.5674 35.2824 23.1522 35.1907C22.3142 33.9666 21.5228 32.7112 20.7797 31.4273C20.04 30.1502 19.3492 28.8454 18.7086 27.5158C19.3475 26.1859 20.0363 24.8804 20.7734 23.6022V23.6027C21.5103 22.3242 22.2955 21.0742 23.1273 19.8554C24.571 19.7462 26.0513 19.6891 27.5477 19.6891C29.0507 19.6891 30.5329 19.7467 31.9762 19.8567C32.7996 21.0736 33.5798 22.3193 34.3153 23.5913C35.0549 24.8666 35.7529 26.1657 36.408 27.4864C35.7596 28.8206 35.0636 30.1312 34.3219 31.4159ZM38.6001 8.25746C40.2256 9.19504 40.8579 12.9756 39.8365 17.9336C39.7696 18.2566 39.6968 18.5783 39.6182 18.8987C37.6043 18.434 35.4172 18.0881 33.1274 17.8732C31.7934 15.9738 30.4113 14.2467 29.0239 12.7518C29.3874 12.4013 29.7597 12.0599 30.1402 11.7278C33.7242 8.60873 37.0738 7.37725 38.6001 8.25746Z" fill="white"/>
<path d="M27.5474 23.1311C29.9416 23.1311 31.8823 25.072 31.8823 27.466C31.8823 29.8602 29.9416 31.8011 27.5474 31.8011C25.1534 31.8011 23.2125 29.8602 23.2125 27.466C23.2125 25.072 25.1534 23.1311 27.5474 23.1311Z" fill="#53C1DE"/>
</svg>
