<svg width="55" height="55" viewBox="0 0 55 55" fill="none" xmlns="http://www.w3.org/2000/svg">
<path fill-rule="evenodd" clip-rule="evenodd" d="M27.5 3.4375C32.2591 3.4375 36.9114 4.84874 40.8684 7.49276C44.8255 10.1368 47.9096 13.8948 49.7309 18.2917C51.5521 22.6885 52.0286 27.5267 51.1001 32.1944C50.1717 36.862 47.88 41.1496 44.5148 44.5148C41.1496 47.88 36.862 50.1717 32.1944 51.1001C27.5267 52.0286 22.6885 51.5521 18.2917 49.7309C13.8948 47.9096 10.1368 44.8255 7.49276 40.8684C4.84874 36.9114 3.4375 32.2591 3.4375 27.5C3.4375 21.1182 5.97265 14.9978 10.4852 10.4852C14.9978 5.97265 21.1182 3.4375 27.5 3.4375Z" fill="#CC6699"/>
<path d="M42.5941 13.7363C41.5044 9.46347 34.418 8.06441 27.7115 10.4397C23.5114 11.8511 19.6309 14.0769 16.2921 16.9899C12.5985 20.4446 12.009 23.4524 12.2513 24.7088C13.1107 29.1432 19.183 32.041 21.6804 34.1911V34.2032C20.9447 34.5658 15.5547 37.2969 14.2897 40.0813C12.9594 43.0238 14.5011 45.1344 15.5238 45.418C17.0592 45.7877 18.6718 45.6674 20.1353 45.074C21.5989 44.4806 22.84 43.4439 23.6844 42.1094C24.3823 41.0282 24.819 39.7993 24.9598 38.5201C25.1006 37.241 24.9417 35.9466 24.4957 34.7394C25.6986 34.4338 26.949 34.362 28.179 34.528C32.4002 35.0213 33.2286 37.6561 33.0705 38.7596C32.9962 39.1523 32.8381 39.5245 32.607 39.8507C32.376 40.177 32.0774 40.4496 31.7316 40.6502C31.436 40.8341 31.3449 40.896 31.3707 41.0335C31.4068 41.2311 31.5426 41.2243 31.7952 41.1813C32.4296 40.9815 32.9885 40.5942 33.3984 40.0705C33.8083 39.5468 34.0499 38.9112 34.0915 38.2474C34.1929 35.6693 31.7162 32.7714 27.3299 32.8454C26.056 32.809 24.7847 32.9832 23.5676 33.361C23.5074 33.2922 23.4455 33.2235 23.3819 33.1547C20.6697 30.2621 15.6579 28.215 15.8693 24.3255C15.9466 22.911 16.4382 19.1882 25.4943 14.6713C32.9193 10.9708 38.8627 11.99 39.8905 14.2468C41.3583 17.4711 36.7143 23.461 29.004 24.3255C28.1518 24.4985 27.2715 24.4774 26.4286 24.2638C25.5857 24.0501 24.8017 23.6495 24.1347 23.0914C23.7291 22.6446 23.669 22.6257 23.5177 22.7082C23.2719 22.8439 23.4283 23.2393 23.5177 23.473C23.8129 24.0051 24.2115 24.4729 24.6899 24.8489C25.1683 25.2249 25.717 25.5016 26.3038 25.6627C29.3353 26.3214 32.4973 26.0087 35.341 24.7689C40.0177 22.966 43.6649 17.9386 42.5941 13.7363ZM22.7185 35.5146C23.0599 36.6914 23.0425 37.9433 22.6687 39.1102C22.6285 39.2317 22.5844 39.352 22.5363 39.4711C22.4882 39.5903 22.436 39.7049 22.3799 39.8149C22.0906 40.4067 21.716 40.9528 21.2679 41.4357C19.8705 42.9602 17.9163 43.5377 17.0793 43.0513C16.1752 42.5271 16.6272 40.3769 18.248 38.6633C19.4934 37.4318 20.9292 36.4092 22.5002 35.6349L22.7185 35.5146Z" fill="white"/>
</svg>
