<?xml version="1.0" encoding="utf-8"?>
<!-- Generator: Adobe Illustrator 24.1.0, SVG Export Plug-In . SVG Version: 6.00 Build 0)  -->
<svg version="1.1" id="logos_costa" xmlns="http://www.w3.org/2000/svg" xmlns:xlink="http://www.w3.org/1999/xlink" x="0px"
	 y="0px" viewBox="0 0 566.9 308.3" style="enable-background:new 0 0 566.9 308.3;" xml:space="preserve">
<style type="text/css">
	.st0{fill:#FFFFFF;}
</style>
<g>
	<path class="st0" d="M70.5,122c-9.7,0-14.6,5.6-14.6,17.2v1.1c0,19.5,22.8,14.2,22.8,27.3v1.5c0,7.5-2.6,11.2-8.2,11.2
		c-3.7,0-5.9-1.1-7.1-3.7c-0.7-2.6-1.1-5.2-1.1-7.8v-4.5H56v5.2c0,11.2,4.9,16.8,14.6,16.8s14.6-5.6,14.6-16.8v-2.6
		c0-5.6-3-10.4-7.8-13.1l-6.8-3.3c-4.5-2.3-8.2-5.2-8.2-10.1v-1.5c0-7.8,2.3-11.2,8.2-11.2c5.2,0,8.2,3,8.2,11.6v3.3h6.8v-4.1
		C85.1,127.2,79.8,122,70.5,122z"/>
	<polygon class="st0" points="129.6,123.1 122.5,123.1 105.3,150 105.3,123.1 98.9,123.1 98.9,185.2 105.3,185.2 105.3,158.3 
		124.3,185.2 131.8,185.2 109.7,153.8 	"/>
	<polygon class="st0" points="152.4,157.1 143.4,123.1 137,123.1 149.4,166.8 149.4,185.2 155.8,185.2 155.8,167.2 167.8,123.1 
		161.4,123.1 	"/>
	<polygon class="st0" points="185.3,123.1 178.9,123.1 178.9,185.2 200.6,185.2 200.6,179.5 200.6,179.2 185.3,179.2 	"/>
	<rect x="212.3" y="123.1" class="st0" width="6.4" height="62.1"/>
	<polygon class="st0" points="260.4,171 242.2,123.1 233.9,123.1 233.9,185.2 240.3,185.2 240.3,136.2 259,185.2 266.8,185.2 
		266.8,123.1 260.4,123.1 	"/>
	<polygon class="st0" points="282.1,185.2 305.3,185.2 305.3,179.5 288.5,179.5 288.5,156 304.9,156 304.9,150.4 288.5,150.4 
		288.5,129.1 305.3,129.1 305.3,123.1 282.1,123.1 	"/>
	<polygon class="st0" points="337.4,185.2 343.8,185.2 343.8,156 358.1,156 358.1,150.4 343.8,150.4 343.8,129.1 358.4,129.1 
		358.4,123.1 337.4,123.1 	"/>
	<rect x="371.5" y="123.1" class="st0" width="6.4" height="62.1"/>
	<polygon class="st0" points="399.9,123.1 393.6,123.1 393.6,185.2 415.3,185.2 415.3,179.5 415.3,179.2 399.9,179.2 	"/>
	<polygon class="st0" points="447.8,171 438.1,123.1 427.2,123.1 427.2,185.2 433.6,185.2 433.6,132.8 444.4,185.2 450.8,185.2 
		461.6,132.8 461.6,185.2 468,185.2 468,123.1 457.9,123.1 	"/>
	<path class="st0" d="M510.9,142.5v-4.1c0-11.2-5.2-16.5-14.6-16.5c-9.4,0-14.6,5.6-14.6,17.2v0.7c0,19.5,22.8,14.2,22.8,27.7v1.5
		c0,7.5-2.6,11.2-8.2,11.2c-3.7,0-5.9-1.1-7.1-3.7c-0.7-2.6-1.1-5.2-1.1-7.8v-4.5h-6.4v5.2c0,11.2,4.9,16.8,14.6,16.8
		s14.6-5.6,14.6-16.8v-2.6c0-5.6-3-10.4-7.8-13.1l-6.8-3.3c-4.5-2.3-8.2-5.2-8.2-10.1v-1.5c0-7.8,2.3-11.2,8.2-11.2
		c5.2,0,8.2,3,8.2,11.6v3.3L510.9,142.5L510.9,142.5z"/>
</g>
</svg>
