<?xml version="1.0" encoding="utf-8"?>
<!-- Generator: Adobe Illustrator 24.0.3, SVG Export Plug-In . SVG Version: 6.00 Build 0)  -->
<svg version="1.1" id="logos_carrefour" xmlns="http://www.w3.org/2000/svg" xmlns:xlink="http://www.w3.org/1999/xlink" x="0px"
	 y="0px" viewBox="0 0 566.9 308.3" style="enable-background:new 0 0 566.9 308.3;" xml:space="preserve">
<style type="text/css">
	.st0{fill-rule:evenodd;clip-rule:evenodd;fill:#FFFFFF;}
</style>
<g id="Symbols">
	<g id="Top-Nav-1024" transform="translate(-32 -39)">
		<g id="Top-Nav">
			<g id="Logo" transform="translate(32 39)">
				<g id="Group">
					<path id="Fill-1" class="st0" d="M444.6,142.2L444.6,142.2c0,13.3-18,11.9-22,11.9v-11.9v0v-11.9
						C426.6,130.3,444.6,128.9,444.6,142.2L444.6,142.2L444.6,142.2L444.6,142.2z M446,165.2c7.5-3.5,13.2-10.3,13.2-23
						c0-24.6-21.4-26.8-35.4-26.9c-0.1,0-0.2,0-0.3,0c-0.3,0-0.5,0-0.8,0c-0.2,0-0.3,0-0.5,0c-0.1,0-0.1,0-0.1,0c-0.4,0-0.8,0-1.1,0
						c-0.1,0-0.2,0-0.3,0c-0.4,0-0.8,0-1.2,0h0c-0.1,0-0.1,0-0.2,0c-0.4,0-0.8,0-1.2,0c-0.6,0-1.3,0-1.8,0H408h-0.1v26.9v26.9h0.1
						v28.4h14.7v-28.4c0.7,0,1.4,0,2.1,0c0,0,0,0,0.1,0c0.7,0,1.4,0,2.1-0.1c0.1,0,0.2,0,0.3,0c1.4-0.1,2.8-0.1,4.3-0.3
						c0.1,0,0.2,0,0.3,0l14.4,28.8h16L446,165.2z"/>
					<path id="Fill-3" class="st0" d="M274.4,110.7v16.6c14.6,0,26.5,12,26.5,26.8c0,14.8-11.9,26.8-26.5,26.8
						c-14.6,0-26.5-12-26.5-26.8c0,0,0,0,0,0h-16.5c0,0,0,0,0,0c0,24,19.3,43.4,43,43.4s43-19.4,43-43.4
						C317.4,130.2,298.1,110.7,274.4,110.7"/>
					<path id="Fill-6" class="st0" d="M145.3,134.3c-4.3-5.7-8.6-8.5-13.1-8.5c-2.2,0-3.9,0.6-5.3,1.7c-1.4,1.1-2.1,2.4-2.1,3.7
						c0,1.4,0.5,2.7,1.5,3.9c1.3,1.6,5.4,5.2,12.1,10.6c6.3,5,10.1,8.2,11.4,9.5c3.3,3.2,5.7,6.3,7.1,9.2c1.4,2.9,2.1,6.2,2.1,9.6
						c0,6.8-2.4,12.4-7.3,16.8c-4.9,4.4-11.3,6.6-19.2,6.6c-6.2,0-11.5-1.4-16.1-4.3c-4.6-2.9-8.5-7.4-11.7-13.6l13.8-8
						c4.2,7.3,8.9,11,14.3,11c2.8,0,5.2-0.8,7.1-2.4c1.9-1.6,2.9-3.4,2.9-5.5c0-1.9-0.7-3.7-2.2-5.6c-1.5-1.9-4.6-4.7-9.6-8.6
						c-9.4-7.3-15.5-13-18.2-17c-2.7-4-4.1-8-4.1-11.9c0-5.7,2.3-10.7,6.8-14.8c4.6-4.1,10.2-6.2,16.9-6.2c4.3,0,8.4,1,12.3,2.9
						c3.9,1.9,8.1,5.4,12.7,10.5l1.5,1.6l-12.4,10.5L145.3,134.3z"/>
					<polygon id="Fill-9" class="st0" points="386.9,115.3 369.2,115.3 349.1,142.9 345.7,147.4 345.7,115.3 331,115.3 331,197.6 
						345.7,197.6 345.7,156.5 349.1,161.7 372.4,197.6 389.8,197.6 360.4,152.7 					"/>
					<polygon id="Fill-11" class="st0" points="172.6,130.3 187.6,130.3 187.6,197.6 202.7,197.6 202.7,130.3 217.8,130.3 
						217.8,115.3 172.6,115.3 					"/>
				</g>
			</g>
		</g>
	</g>
</g>
</svg>
