<svg xmlns="http://www.w3.org/2000/svg" width="86.701" height="62.634"><path d="M57.142 36.792c1.52.06 7.06-.92 9.34-.22-1.84 2.21-7.14 6.49-8.36 8-2.19 2.72-4.62 4.29-6.47 7.24-2.49 3.97-2.01 8.7.55 10.21 2.62 1.54 4.85.25 7.92-4.76 5.04-8.22 11.19-15.3 19.88-19.88 1.53-.81 2.92-1.94 4.24-3.08 4.51-3.89 2.31-6.29-2.51-9.89-5.78-4.33-10.57-9.66-16.29-14.05-3.96-3.04-5.71-5.38-9.8-8.24-1.72-1.2-4.04-2.06-6.11-2.12-3.77-.1-5.41 2.93-3.33 6.12 1.33 2.04 3.31 3.71 5.17 5.35 5.97 5.26 11.02 9.44 17.03 14.64l-.54 1.32c-7.19 0-14.39.19-21.58-.04l-38.57.39c-1.25.01-2.82-.4-3.67.21-1.66 1.18-3.96 2.89-4.04 4.47-.08 1.54 2.03 3.63 3.69 4.66 1.31.81 3.4.5 5.13.46z"/></svg>