<svg width="55" height="55" viewBox="0 0 55 55" fill="none" xmlns="http://www.w3.org/2000/svg">
<g clip-path="url(#clip0_32_104)">
<path d="M3.89383 27.5C3.89383 36.8019 9.2993 44.8403 17.1381 48.6496L5.9284 17.9364C4.58463 20.9456 3.89132 24.2045 3.89383 27.5ZM43.2577 26.3141C43.2577 23.41 42.2144 21.3987 41.3198 19.8333C40.1285 17.8976 39.012 16.2583 39.012 14.3226C39.012 12.1623 40.6504 10.1514 42.9582 10.1514C43.0624 10.1514 43.161 10.1643 43.2627 10.1703C39.0818 6.33982 33.5115 4.00125 27.3936 4.00125C19.1838 4.00125 11.961 8.21348 7.75908 14.5935C8.31037 14.61 8.82986 14.6214 9.27137 14.6214C11.7292 14.6214 15.5341 14.3234 15.5341 14.3234C16.801 14.2487 16.9503 16.1092 15.6849 16.2592C15.6849 16.2592 14.4117 16.4089 12.995 16.483L21.5531 41.9375L26.6958 26.5139L23.0345 16.4824C21.769 16.4083 20.5702 16.2585 20.5702 16.2585C19.3039 16.1842 19.4524 14.248 20.7187 14.3228C20.7187 14.3228 24.5996 14.621 26.9085 14.621C29.3663 14.621 33.1714 14.3228 33.1714 14.3228C34.439 14.248 34.5881 16.1086 33.3223 16.2585C33.3223 16.2585 32.0465 16.4083 30.6324 16.4824L39.125 41.7439L41.4689 33.9112C42.4847 30.6608 43.2579 28.3263 43.2579 26.3143L43.2577 26.3141ZM27.8059 29.5556L20.7552 50.0438C22.9109 50.6787 25.1464 51.0011 27.3936 51.0011C30.1301 51.0011 32.7544 50.528 35.1974 49.6691C35.1322 49.5663 35.0762 49.458 35.0301 49.3453L27.8059 29.5556ZM48.0137 16.2256C48.1147 16.9742 48.172 17.7777 48.172 18.642C48.172 21.0268 47.7267 23.7074 46.3852 27.0591L39.207 47.813C46.1933 43.739 50.8924 36.17 50.8924 27.5006C50.8928 23.415 49.8493 19.5729 48.0137 16.2256ZM27.3936 0.107422C12.2891 0.107422 0 12.3956 0 27.5C0 42.6063 12.2891 54.8941 27.3936 54.8941C42.4976 54.8941 54.7884 42.6063 54.7884 27.5C54.7882 12.3956 42.4976 0.107422 27.3936 0.107422ZM27.3936 53.6385C12.9819 53.6385 1.25598 41.9128 1.25598 27.5C1.25598 13.0883 12.9813 1.3634 27.3936 1.3634C41.8049 1.3634 53.5298 13.0883 53.5298 27.5C53.5298 41.9128 41.8049 53.6385 27.3936 53.6385Z" fill="#464342"/>
</g>
<defs>
<clipPath id="clip0_32_104">
<rect width="55" height="55" fill="white"/>
</clipPath>
</defs>
</svg>
